<?xml version="1.0" encoding="iso-8859-1"?>
<!-- Uploaded to: SVG Repo, www.svgrepo.com, Generator: SVG Repo Mixer Tools -->
<svg fill="#000000" height="800px" width="800px" version="1.1" id="Capa_1" xmlns="http://www.w3.org/2000/svg" xmlns:xlink="http://www.w3.org/1999/xlink" 
	 viewBox="0 0 463 463" xml:space="preserve">
<g>
	<path d="M207.5,95c10.336,0,19.128-6.71,22.266-16H271.5c4.142,0,7.5-3.358,7.5-7.5s-3.358-7.5-7.5-7.5h-41.734
		c-3.138-9.29-11.93-16-22.266-16C194.542,48,184,58.542,184,71.5S194.542,95,207.5,95z M207.5,63c4.687,0,8.5,3.813,8.5,8.5
		s-3.813,8.5-8.5,8.5s-8.5-3.813-8.5-8.5S202.813,63,207.5,63z"/>
	<path d="M199.5,144h-16c-4.142,0-7.5,3.358-7.5,7.5s3.358,7.5,7.5,7.5h16c4.142,0,7.5-3.358,7.5-7.5S203.642,144,199.5,144z"/>
	<path d="M239.5,144h-16c-4.142,0-7.5,3.358-7.5,7.5s3.358,7.5,7.5,7.5h16c4.142,0,7.5-3.358,7.5-7.5S243.642,144,239.5,144z"/>
	<path d="M279.5,144h-16c-4.142,0-7.5,3.358-7.5,7.5s3.358,7.5,7.5,7.5h16c4.142,0,7.5-3.358,7.5-7.5S283.642,144,279.5,144z"/>
	<path d="M351,272.913V143h0.5c12.958,0,23.5-10.542,23.5-23.5S364.458,96,351.5,96H319v-8.5C319,39.252,279.748,0,231.5,0
		S144,39.252,144,87.5V96h-32.5C98.542,96,88,106.542,88,119.5S98.542,143,111.5,143h0.5v129.913
		c-5.418,1.319-10.551,4.09-14.774,8.313c-12.282,12.282-12.282,32.266,0,44.548c2.929,2.929,7.678,2.929,10.606,0
		c2.929-2.929,2.929-7.678,0-10.606c-6.433-6.434-6.433-16.901,0-23.335c3.117-3.116,7.26-4.833,11.667-4.833
		s8.551,1.716,11.667,4.833c6.433,6.434,6.433,16.901,0,23.335c-2.929,2.929-2.929,7.678,0,10.606
		c1.464,1.464,3.384,2.197,5.303,2.197s3.839-0.732,5.303-2.197c12.282-12.282,12.282-32.266,0-44.548
		c-4.223-4.223-9.356-6.994-14.774-8.313V143h17v88.5c0,12.958,10.542,23.5,23.5,23.5H184v8.5c0,11.686,8.575,21.404,19.763,23.2
		l3.675,22.049C184.323,318.25,168,341,168,367.5v32c0,4.142,3.358,7.5,7.5,7.5H200v24.5c0,17.369,14.131,31.5,31.5,31.5
		s31.5-14.131,31.5-31.5V407h24.5c4.142,0,7.5-3.358,7.5-7.5v-32c0-26.5-16.323-49.25-39.438-58.751l3.675-22.049
		C270.425,284.904,279,275.186,279,263.5V255h16.5c12.958,0,23.5-10.542,23.5-23.5V143h17v129.913
		c-5.418,1.319-10.551,4.09-14.774,8.313c-12.282,12.282-12.282,32.266,0,44.548c2.929,2.929,7.678,2.929,10.606,0
		c2.929-2.929,2.929-7.678,0-10.606c-6.433-6.434-6.433-16.901,0-23.335c3.117-3.116,7.26-4.833,11.667-4.833
		s8.551,1.716,11.667,4.833c6.433,6.434,6.433,16.901,0,23.335c-2.929,2.929-2.929,7.678,0,10.606
		c1.464,1.464,3.384,2.197,5.303,2.197s3.839-0.732,5.303-2.197c12.282-12.282,12.282-32.266,0-44.548
		C361.551,277.003,356.418,274.232,351,272.913z M159,127h145v81H159V127z M159,87.5c0-39.977,32.523-72.5,72.5-72.5
		S304,47.523,304,87.5V112H159V87.5z M111.5,128c-4.687,0-8.5-3.813-8.5-8.5s3.813-8.5,8.5-8.5H144v17H111.5z M248,431.5
		c0,9.098-7.402,16.5-16.5,16.5s-16.5-7.402-16.5-16.5v-64c0-9.098,7.402-16.5,16.5-16.5s16.5,7.402,16.5,16.5V431.5z M280,367.5
		V392h-17v-24.5c0-17.369-14.131-31.5-31.5-31.5S200,350.131,200,367.5V392h-17v-24.5c0-26.743,21.757-48.5,48.5-48.5
		S280,340.757,280,367.5z M231.5,304c-3.238,0-6.419,0.247-9.527,0.716L219.02,287h24.96l-2.953,17.716
		C237.919,304.247,234.738,304,231.5,304z M264,263.5c0,4.687-3.813,8.5-8.5,8.5h-48c-4.687,0-8.5-3.813-8.5-8.5V255h65V263.5z
		 M295.5,240h-24h-80h-24c-4.687,0-8.5-3.813-8.5-8.5V223h145v8.5C304,236.187,300.187,240,295.5,240z M319,111h32.5
		c4.687,0,8.5,3.813,8.5,8.5s-3.813,8.5-8.5,8.5H319V111z"/>
</g>
</svg>